<svg width="201" height="24" viewBox="0 0 201 24" fill="none" xmlns="http://www.w3.org/2000/svg"><path d="M146.239 11.51A11.943 11.943 0 01158.177 0a11.944 11.944 0 0111.938 11.509 11.943 11.943 0 01-11.938 11.509 11.944 11.944 0 01-11.938-11.51zm6.233 0a5.71 5.71 0 005.705 5.495 5.71 5.71 0 005.705-5.495 5.711 5.711 0 00-5.705-5.495 5.71 5.71 0 00-5.705 5.495zm-33.787 0A11.949 11.949 0 01130.624 0a11.948 11.948 0 0111.939 11.51 11.949 11.949 0 01-11.939 11.51 11.948 11.948 0 01-11.939-11.51zm6.233 0a5.71 5.71 0 0011.412 0 5.71 5.71 0 00-11.412 0zm-104.318 0A11.724 11.724 0 0132.533.01a11.726 11.726 0 0111.94 11.5 11.726 11.726 0 01-11.94 11.5A11.726 11.726 0 0120.6 11.51zm6.233 0a5.71 5.71 0 0011.412 0 5.71 5.71 0 00-11.412 0zM183.3 22.503h-7.9V.478h9.649V.5a11.23 11.23 0 0111.431 11.01 11.238 11.238 0 01-11.441 11.02 30.478 30.478 0 01-1.739-.027zm-1.7-5.748h3.444a5.34 5.34 0 005.431-5.235 5.34 5.34 0 00-5.431-5.236H181.6v10.47zm-72.393 5.767H103.1l.007-.025-3.843-12.253-3.843 12.252.008.025H89.3l.008-.025-6.9-22h6.108l3.847 12.263L96.209.509V.5h6.115v.01l3.844 12.253L110.007.496h6.108l-6.9 22 .008.025h-.016zm-34.571 0L70.79 10.259l-3.843 12.25v.009h-6.111v-.008L57 10.259 53.151 22.52h-6.109l6.9-22-.008-.025h6.123l-.008.026 3.844 12.252L67.736.522l-.008-.026h6.125l-.008.026 6.9 22h-6.109zm-68.92-.018V5.953H0V.478h17.638v5.475h-5.716v16.55H5.716zM196.542 2.597a2.234 2.234 0 014.458 0 2.232 2.232 0 01-4.458 0zm.556 0a1.652 1.652 0 00.491 1.195 1.644 1.644 0 001.202.474 1.627 1.627 0 001.654-1.656 1.676 1.676 0 00-1.028-1.55 1.67 1.67 0 00-2.189.898c-.085.203-.129.42-.13.64v-.001zm2.2 1.1a1.744 1.744 0 01-.171-.511c-.041-.23-.173-.331-.451-.331h-.237v.842h-.5V1.603a4.52 4.52 0 01.833-.063c.261-.02.522.032.754.152a.58.58 0 01.212.46.542.542 0 01-.449.485v.025a.62.62 0 01.4.509c.021.182.075.36.159.523l-.55.003zm-.851-1.787v.6h.238c.277 0 .5-.088.5-.307 0-.19-.147-.317-.463-.317a1.176 1.176 0 00-.275.024z" fill="#000"/></svg>