<?xml version="1.0" encoding="utf-8"?>
<!-- Generator: Adobe Illustrator 15.0.0, SVG Export Plug-In  -->
<!DOCTYPE svg PUBLIC "-//W3C//DTD SVG 1.1//EN" "http://www.w3.org/Graphics/SVG/1.1/DTD/svg11.dtd" [
	<!ENTITY ns_flows "http://ns.adobe.com/Flows/1.0/">
]>
<svg version="1.1"
	 xmlns="http://www.w3.org/2000/svg" xmlns:xlink="http://www.w3.org/1999/xlink" xmlns:a="http://ns.adobe.com/AdobeSVGViewerExtensions/3.0/"
	 x="0px" y="0px" width="40px" height="48px" viewBox="-1 -2.033 40 48"
	 overflow="visible" enable-background="new -1 -2.033 40 48" xml:space="preserve">
<defs>
</defs>
<path d="M17.851,31.864c-0.254-0.481-0.851-0.666-1.331-0.412l-7.538,3.977l-7.538-3.977c-0.481-0.254-1.077-0.069-1.331,0.412
	s-0.07,1.077,0.412,1.331l7.472,3.931v2.036c0,0.544,0.441,0.985,0.986,0.985c0.543,0,0.985-0.441,0.985-0.985v-2.035l7.472-3.932
	C17.92,32.941,18.104,32.345,17.851,31.864z"/>
<path d="M37.886,32.3c-0.255-0.482-0.85-0.666-1.332-0.412l-7.538,3.978l-7.537-3.978c-0.481-0.254-1.077-0.07-1.331,0.412
	c-0.253,0.48-0.069,1.077,0.412,1.33l7.472,3.931v4.764c0,0.545,0.44,0.986,0.985,0.986c0.544,0,0.984-0.441,0.984-0.986v-4.763
	l7.473-3.932C37.955,33.377,38.139,32.781,37.886,32.3z"/>
<path d="M17.045,4.829l-6.475-4.16c0,0,0,0-0.001-0.001C9.176-0.22,8.786-0.225,7.398,0.666L7.395,0.668L0.92,4.829
	C0.462,5.123,0.33,5.731,0.624,6.19c0.294,0.458,0.904,0.59,1.362,0.296L8.982,1.99l6.998,4.496
	c0.457,0.294,1.067,0.161,1.362-0.296C17.635,5.731,17.502,5.123,17.045,4.829z"/>
<path d="M36.934,4.829l-6.476-4.16l-0.001-0.001c-1.392-0.887-1.782-0.893-3.171-0.001l-0.002,0.002l-6.476,4.16
	c-0.456,0.294-0.59,0.903-0.296,1.361c0.294,0.458,0.904,0.59,1.361,0.296l6.997-4.496l6.998,4.496
	c0.457,0.294,1.067,0.161,1.36-0.296C37.525,5.731,37.392,5.123,36.934,4.829z"/>
<path d="M17.218,12.43c-0.255-0.481-0.85-0.665-1.332-0.412l-5.919,3.123V9.397c0-0.544-0.441-0.985-0.985-0.985
	S7.997,8.853,7.997,9.397v5.745l-5.919-3.123c-0.481-0.253-1.077-0.069-1.331,0.412c-0.254,0.481-0.07,1.077,0.411,1.332
	c0,0,6.544,3.444,6.58,3.459c0.899,0.453,1.422,0.504,2.276,0.113c0.102-0.046,6.791-3.572,6.791-3.572
	C17.287,13.507,17.472,12.912,17.218,12.43z"/>
<path d="M37.107,12.43c-0.254-0.481-0.85-0.665-1.33-0.412l-5.92,3.123V9.397c0-0.544-0.44-0.985-0.985-0.985
	c-0.544,0-0.984,0.441-0.984,0.985v5.745l-5.919-3.123c-0.481-0.253-1.078-0.069-1.332,0.412c-0.254,0.481-0.068,1.077,0.413,1.331
	c0,0,6.545,3.446,6.581,3.46c0.897,0.453,1.421,0.503,2.274,0.112c0.102-0.046,6.79-3.572,6.79-3.572
	C37.177,13.507,37.361,12.912,37.107,12.43z"/>
<path d="M36.243,22.272c-0.001-0.001-0.001-0.003-0.002-0.004c-0.308-0.428-0.893-0.659-1.555-0.358l-5.778,3.049l-5.779-3.049
	c-0.66-0.3-1.246-0.069-1.554,0.358c-0.254,0.481,0.154,1.13,0.636,1.384l5.426,2.853c0.982,0.515,1.482,0.556,2.546-0.001
	l4.33-2.274v5.942c0,0.545,0.442,0.986,0.986,0.986c0.543,0,0.985-0.441,0.985-0.986v-7.247
	C36.484,22.712,36.393,22.471,36.243,22.272z"/>
<path d="M16.316,21.617c0-0.001-0.001-0.002-0.001-0.003c-0.307-0.429-0.893-0.661-1.555-0.359l-5.777,3.049l-5.778-3.049
	c-0.662-0.302-1.248-0.07-1.555,0.359c-0.001,0.001-0.001,0.002-0.001,0.003c-0.15,0.198-0.242,0.44-0.242,0.653v5.827
	c0,0.643,0.475,0.901,0.985,1.168l0,0l5.32,2.795c0.979,0.514,1.481,0.557,2.545,0l5.317-2.795l0,0
	c0.51-0.267,0.985-0.525,0.985-1.168V22.27C16.558,22.058,16.467,21.816,16.316,21.617z M8.983,30.514l-5.606-2.958v-3.982
	l4.333,2.275c0.979,0.513,1.481,0.559,2.545,0.001l4.333-2.276v3.982L8.983,30.514z"/>
<path d="M17.288,38.717c-0.253-0.48-0.85-0.664-1.331-0.411l-6.975,3.68l-6.975-3.68c-0.481-0.253-1.078-0.069-1.332,0.411
	c-0.254,0.482-0.069,1.077,0.412,1.331l6.63,3.488c0.979,0.515,1.481,0.55,2.545-0.01l6.613-3.479
	C17.357,39.794,17.542,39.2,17.288,38.717z"/>
</svg>
